<svg id="Layer_1" data-name="Layer 1" xmlns="http://www.w3.org/2000/svg" viewBox="0 0 64 64"><defs><style>.cls-1{fill:#fbd3ca;}.cls-2,.cls-5{fill:#333;}.cls-2{opacity:0.2;}.cls-3,.cls-8,.cls-9{fill:none;stroke:#333;stroke-linejoin:round;}.cls-3,.cls-8{stroke-width:2px;}.cls-4{fill:#f3cac2;}.cls-6{fill:#debbb5;}.cls-7{fill:#a15152;}.cls-8,.cls-9{stroke-linecap:round;}</style></defs><title>avatar-mohawk-punk-man</title><rect class="cls-1" x="24.5" y="32.57" width="15" height="13.5"/><path class="cls-2" d="M36.5,38.57c-1.27,2.3-3.3,2-4.5,2a5.76,5.76,0,0,1-3.06-.48L28,39.31l5.5,6.77h6V34.92A15.39,15.39,0,0,0,36.5,38.57Z"/><line class="cls-3" x1="24" y1="44.43" x2="24" y2="33.43"/><line class="cls-3" x1="40" y1="45.43" x2="40" y2="33.43"/><path class="cls-1" d="M32,40.57c1.2,0,3.23.3,4.5-2,2.15-3.89,5.5-5.1,5.5-8.5V28.4c1.5,0,2.72-1.34,3.1-3.52s-.11-3.72-1.55-4c-.63-.12-.55-.31-.55-.31,0-1.91-.09-1.4,0-3,.26-4.85-3-10-11-10s-11.26,5.15-11,10c.09,1.6,0,1.13,0,3,0,0,.07.19-.55.31-1.43.28-1.92,1.89-1.55,4S20.53,28.4,22,28.4v1.67c0,3.4,3.35,4.61,5.5,8.5C28.77,40.87,30.8,40.57,32,40.57Z"/><path class="cls-4" d="M32,40.57c1.2,0,3.23.3,4.5-2,2.15-3.89,5.5-5.1,5.5-8.5V28.4c1.5,0,2.72-1.34,3.1-3.52s-.11-3.72-1.55-4c-.63-.12-.55-.31-.55-.31,0-1.91-.09-1.4,0-3,.26-4.85-3-10-11-10h-.53l-1.38,3.77a45.43,45.43,0,0,0-3.26,17.58c0,2,.09,5.69.24,8.92.15.23.29.47.43.72C28.77,40.87,30.8,40.57,32,40.57Z"/><circle class="cls-5" cx="27.25" cy="24.78" r="1.25"/><circle class="cls-5" cx="36.75" cy="24.78" r="1.25"/><path class="cls-6" d="M42.43,24a.4.4,0,0,0-.4-.45l-1.67,5.72a1.38,1.38,0,0,1-1.66,1L36,29.58a16.57,16.57,0,0,0-8,0l-2.69.67a1.38,1.38,0,0,1-1.66-1l-1.72-5.72a.36.36,0,0,0-.36.41,17.77,17.77,0,0,1-.05,6.09c0,3.4,3.85,4.61,6,8.5,1.27,2.3,3.3,2,4.5,2s3.23.3,4.5-2c2.15-3.89,6-5.1,6-8.5A25.55,25.55,0,0,1,42.43,24Zm-5.72,8.05-.86,1.51A2.94,2.94,0,0,1,34.05,35a.45.45,0,0,1-.55-.44.45.45,0,0,0-.45-.45H31a.45.45,0,0,0-.45.45.45.45,0,0,1-.55.44,2.94,2.94,0,0,1-1.8-1.38l-.86-1.51a.45.45,0,0,1,.31-.67,33,33,0,0,1,8.81,0A.45.45,0,0,1,36.71,32.08Z"/><path class="cls-5" d="M33.45,16.07H30.55a1.69,1.69,0,0,1-1.69-1.55l-.71-8.11a1.69,1.69,0,0,1,1.69-1.84h4.3a1.69,1.69,0,0,1,1.69,1.84l-.71,8.11A1.69,1.69,0,0,1,33.45,16.07Z"/><path class="cls-3" d="M43,20.43c0-1.87-.09-1.4,0-3,.26-4.85-3-10-11-10s-11.26,5.15-11,10c.09,1.6,0,1.13,0,3-1.42-.73-2.71.84-2.1,4.31.32,1.81,1.24,3,2.39,3.41A1,1,0,0,1,22,29v.88c0,3.4,3.35,4.61,5.5,8.5,1.27,2.3,3.3,2,4.5,2s3.23.3,4.5-2c2.15-3.89,5.5-5.1,5.5-8.5V29a1,1,0,0,1,.71-.9c1.15-.36,2.07-1.59,2.39-3.41C45.71,21.27,44.42,19.7,43,20.43Z"/><path class="cls-7" d="M32,59.43a61.68,61.68,0,0,0,27.1-6.23c-.78-1.89-1.56-3.7-2.1-4.77-1-2-3.7-4-6-4-2,0-5-1-7-1l-2-2a24.75,24.75,0,0,1-10,2.65,24.75,24.75,0,0,1-10-2.65l-2,2c-2,0-5,1-7,1-2.3,0-5,2-6,4-.54,1.07-1.31,2.88-2.1,4.77A61.68,61.68,0,0,0,32,59.43Z"/><path class="cls-8" d="M59.1,53.19c-.78-1.89-1.56-3.7-2.1-4.77-1-2-3.7-4-6-4-2,0-5-1-7-1l-2-2a24.75,24.75,0,0,1-10,2.65,24.75,24.75,0,0,1-10-2.65l-2,2c-2,0-5,1-7,1-2.3,0-5,2-6,4-.54,1.07-1.31,2.88-2.1,4.77"/><path class="cls-9" d="M22.92,46.24C22.34,46,22,45.8,22,45.8"/><path class="cls-9" d="M42,45.8a25.88,25.88,0,0,1-10,2.5,21.23,21.23,0,0,1-6.67-1.1"/><path class="cls-8" d="M59,53.26a61.69,61.69,0,0,1-27,6.16A61.69,61.69,0,0,1,5,53.26"/></svg>