<?xml version="1.0" encoding="UTF-8"?>
<svg width="502px" height="493px" viewBox="0 0 502 493" version="1.1" xmlns="http://www.w3.org/2000/svg" xmlns:xlink="http://www.w3.org/1999/xlink">
    <!-- Generator: Sketch 44.1 (41455) - http://www.bohemiancoding.com/sketch -->
    <title>Group</title>
    <desc>Created with Sketch.</desc>
    <defs>
        <path d="M0.424,219.622 C0.424,171.735 61.093,0.28 163,0.28 C264.907,0.28 325.576,172.134 325.576,219.622 C325.576,267.111 187.696,276.06 163,276.06 C138.303,276.06 0.424,267.511 0.424,219.622 Z" id="path-1"></path>
    </defs>
    <g id="Page-1" stroke="none" stroke-width="1" fill="none" fill-rule="evenodd">
        <g id="Group">
            <g id="hover" opacity="0.429347826" transform="translate(164.000000, 431.000000)" fill-rule="nonzero" fill="#2C3332">
                <ellipse id="shadow_2_" opacity="0.4" cx="89" cy="31.375" rx="88.971" ry="30.625"></ellipse>
            </g>
            <g id="arms" transform="translate(0.000000, 259.000000)" fill-rule="nonzero">
                <g id="left">
                    <path d="M134.975,5.936 C84.705,-15.659 38.538,35.59 38.843,60.319 C38.903,65.187 46.679,71.743 50.352,67.398 C62.497,53.029 87.331,31.665 106.028,50.912 C107.498,52.423 140.086,8.132 134.975,5.936 Z" id="arm_1_" fill="#BABEB7"></path>
                    <g id="hand_1_" transform="translate(0.000000, 48.000000)">
                        <path d="M14.712,47.545 L20.369,40.474 C20.369,40.474 8.916,31.477 10.967,27.92 C15.436,20.169 26.902,18.405 36.579,23.984 C46.255,29.563 50.477,40.369 46.009,48.12 C44.273,51.133 38.646,48.211 38.646,48.211 L32.989,55.282 L33.047,61.309 C41.52,62.139 49.501,59.745 54.739,54.462 C55.974,53.217 61.068,47.175 61.968,45.612 C63.794,42.446 54.389,19.005 43.238,12.576 C34.877,7.756 12.066,7.502 12.066,7.502 C12.066,7.502 6.375,13.316 3.261,18.718 C-2.509,28.724 1.008,41.989 10.939,51.204 L14.712,47.545 Z" id="shadow" fill="#BABEB7"></path>
                        <path d="M20.37,40.474 C14.927,34.657 13.168,26.843 16.624,20.849 C21.093,13.098 32.559,11.335 42.236,16.914 C51.912,22.492 56.135,33.299 51.666,41.049 C49.091,45.517 44.188,47.981 38.646,48.211 L38.704,54.238 C49.175,55.264 58.896,51.365 63.615,43.178 C70.591,31.079 64,14.213 48.896,5.505 C33.792,-3.203 15.894,-0.452 8.919,11.647 C3.15,21.654 6.666,34.918 16.598,44.133 L20.37,40.474 Z" id="top" fill="#DCE0DA"></path>
                    </g>
                </g>
                <g id="right" transform="translate(366.000000, 0.000000)">
                    <path d="M1.025,5.936 C51.295,-15.659 97.462,35.59 97.156,60.319 C97.097,65.187 89.32,71.743 85.647,67.398 C73.502,53.029 48.668,31.665 29.971,50.912 C28.502,52.423 -4.086,8.132 1.025,5.936 Z" id="arm" fill="#DCE0DA"></path>
                    <g id="hand" transform="translate(69.000000, 48.000000)">
                        <path d="M52.287,47.545 L46.631,40.474 C46.631,40.474 58.084,31.477 56.033,27.92 C51.564,20.169 40.097,18.405 30.421,23.984 C20.745,29.563 16.523,40.369 20.991,48.12 C22.727,51.133 28.353,48.211 28.353,48.211 L34.01,55.282 L33.952,61.309 C25.478,62.139 17.497,59.745 12.26,54.462 C11.025,53.217 5.931,47.175 5.031,45.612 C3.205,42.446 12.609,19.005 23.761,12.576 C32.122,7.756 54.933,7.502 54.933,7.502 C54.933,7.502 60.624,13.316 63.738,18.718 C69.508,28.724 65.991,41.989 56.06,51.204 L52.287,47.545 Z" id="shadow_1_" fill="#BABEB7"></path>
                        <path d="M46.631,40.474 C52.074,34.657 53.832,26.843 50.376,20.849 C45.907,13.098 34.441,11.335 24.764,16.914 C15.088,22.492 10.866,33.299 15.334,41.049 C17.909,45.517 22.813,47.981 28.354,48.211 L28.296,54.238 C17.824,55.264 8.104,51.365 3.385,43.178 C-3.59,31.079 3,14.213 18.105,5.505 C33.21,-3.203 51.108,-0.452 58.083,11.647 C63.852,21.654 60.335,34.918 50.403,44.133 L46.631,40.474 Z" id="top_1_" fill="#DCE0DA"></path>
                    </g>
                </g>
            </g>
            <g id="body" transform="translate(88.000000, 140.000000)">
                <g id="chassie">
                    <g id="base">
                        <g id="Shape">
                            <mask id="mask-2" fill="white">
                                <use xlink:href="#path-1"></use>
                            </mask>
                            <use id="Mask" fill="#DCE0DA" fill-rule="nonzero" xlink:href="#path-1"></use>
                            <path d="M318.667,110.899614 C318.667,110.899614 280.368,170.502907 161.684,170.502907 C93.999,170.502907 75.333,184.875807 65,208.457208 C54.667,232.03861 66.368,274.679537 161.684,274.679537 C257,274.679537 163.5,295.925378 163.5,295.925378 C163.5,295.925378 -35.333,254.651869 -35.333,253.682757 C-35.333,252.713645 19,45.3236834 19,45.3236834 L318.667,110.899614 Z" fill="#BABEB7" fill-rule="nonzero" mask="url(#mask-2)"></path>
                        </g>
                    </g>
                </g>
                <g id="progress-indicator" transform="translate(37.000000, 197.000000)" fill-rule="nonzero">
                    <g id="divet">
                        <path d="M251.182,21.775 L246.5,0.564 C246.5,0.564 198.32,20.127 126.16,20.127 C54,20.127 5.34,1.048 5.34,1.048 L0.798,21.684 C0.798,21.684 38.321,41.736 126.161,41.736 C214.001,41.736 251.182,21.775 251.182,21.775 Z" id="highlight-bottom" fill="#EAECE8"></path>
                        <path d="M246.682,18.823 L242.168,2.169 C242.168,2.169 195.721,20.128 126.154,20.128 C56.588,20.128 9.677,2.577 9.677,2.577 L5.298,18.736 C5.298,18.736 41.472,37.333 126.154,37.333 C210.837,37.333 246.682,18.823 246.682,18.823 Z" id="divet-bottom" fill="#4C4C4C"></path>
                        <polygon id="shadow-right_1_" fill="#BABEB7" points="242.168 2.169 246.5 0.564 251.182 21.775 246.682 18.823"></polygon>
                        <polygon id="shadow-left" fill="#8F918D" points="9.677 2.577 5.34 1.049 0.797 21.685 5.297 18.736"></polygon>
                        <path d="M30.738,27.305 L24.952,30.264 C24.952,30.264 16.827,28.192 10.25,25.708 C3.673,23.224 0.797,21.685 0.797,21.685 L5.297,18.737 C5.297,18.737 9.336,20.929 16.61,23.2 C23.884,25.471 30.738,27.305 30.738,27.305 Z" id="shadow-bottom" fill="#BABEB7"></path>
                    </g>
                    <g id="completed" transform="translate(5.000000, 2.000000)">
                        <path d="M121.154,18.128 C51.588,18.128 4.677,0.577 4.677,0.577 L0.298,16.736 C0.298,16.736 36.472,35.333 121.154,35.333 C149.966,35.333 173.119,33.189 191.137,30.362 L189.329,12.289 C170.822,15.518 147.67,18.128 121.154,18.128 Z" id="blue" fill="#84D3E8"></path>
                        <path d="M29.568,7.712 C13.886,3.971 4.638,0.577 4.638,0.577 L0.201,16.736 C0.201,16.736 8.238,20.911 25.738,25.304 C26.625,19.125 27,15.875 29.568,7.712 Z" id="blue-shadow" fill="#6DADBC"></path>
                    </g>
                </g>
            </g>
            <g id="head" transform="translate(88.000000, 0.000000)" fill-rule="nonzero">
                <g id="face" transform="translate(0.000000, 44.000000)">
                    <path d="M281.268,25.276 C240.932,23.144 190.52,22 163.003,22 C135.486,22 85.237,23.144 44.901,25.276 C10.83,27.077 3.679,42.311 3.679,95.018 C3.679,147.725 6.829,183.329 28.329,202.837 C64.16,235.348 129.587,250.666 163.002,250.666 C196.834,250.666 262.062,235.348 297.893,202.837 C319.393,183.329 322.651,147.725 322.651,95.018 C322.651,42.311 315.338,27.078 281.268,25.276 Z" id="screen-shadow" fill="#9AB2B0"></path>
                    <path d="M27.381,143.965 C27.381,199.19 134.424,220.658 163,220.658 C191.576,220.658 298.618,199.189 298.618,143.965 C298.618,43.938 237.901,20.672 163,20.672 C88.101,20.671 27.381,43.938 27.381,143.965 Z" id="screen" fill="#A4BCB9"></path>
                    <path d="M163,29 C190.54,29 241.739,30.16 282.383,32.309 C298.22,33.146 300.443,37.024 301.771,39.341 C306.797,48.112 307.442,68.508 307.442,85.296 C307.442,135.25 307.286,167.034 291.155,181.67 C259.516,210.378 195.141,226.667 163.001,226.667 C130.953,226.667 67.706,210.378 36.067,181.67 C20.028,167.118 18.891,135.314 18.891,85.296 C18.891,68.471 19.529,48.038 24.505,39.296 C25.9,36.846 28.008,33.143 43.784,32.309 C84.426,30.16 135.541,29 163,29 L163,29 Z M163,0.5 C82.5,0.5 2.89,7.667 2.89,61.295 C2.89,114.923 4.095,175.151 25.971,195 C62.429,228.08 129,243.666 163,243.666 C197.424,243.666 263.792,228.08 300.25,195 C322.126,175.151 323.441,114.924 323.441,61.295 C323.441,7.666 243.5,0.5 163,0.5 Z" id="case_x5F_shadow" fill="#EAECE8"></path>
                    <path d="M163,38 C190.54,38 241.739,39.16 282.383,41.309 C298.22,42.146 300.443,46.024 301.771,48.341 C306.797,57.112 307.442,77.508 307.442,94.296 C307.442,144.25 304.286,176.034 288.155,190.67 C256.516,219.378 195.141,234.667 163.001,234.667 C130.953,234.667 69.706,219.378 38.067,190.67 C22.028,176.118 18.891,144.314 18.891,94.296 C18.891,77.471 19.529,57.038 24.505,48.296 C25.9,45.846 28.008,42.143 43.784,41.309 C84.426,39.16 135.541,38 163,38 L163,38 Z M163,20 C135.001,20 83.874,21.164 42.833,23.333 C8.166,25.166 0.89,40.666 0.89,94.295 C0.89,147.924 4.095,184.151 25.971,204 C62.429,237.08 129,252.666 163,252.666 C197.424,252.666 263.792,237.08 300.25,204 C322.126,184.151 325.441,147.924 325.441,94.295 C325.441,40.666 318,25.166 283.333,23.333 C242.292,21.164 190.998,20 163,20 L163,20 Z" id="case" fill="#DCE0DA"></path>
                </g>
                <g id="eyes" transform="translate(87.000000, 133.000000)" fill="#2C3332">
                    <ellipse id="left_1_" cx="7" cy="17.667" rx="6.333" ry="17"></ellipse>
                    <ellipse id="right_1_" cx="145" cy="17.667" rx="6.334" ry="17"></ellipse>
                </g>
                <g id="indicators" transform="translate(108.000000, 0.000000)">
                    <path d="M109.333,54.333 C109.333,24.417 85.081,0.166 55.166,0.166 C25.25,0.166 0.999,24.417 0.999,54.333 C0.999,59 25.25,59 55.166,59 C85.081,59 109.333,59 109.333,54.333 Z" id="mount" fill="#DCE0DA"></path>
                    <g id="leds" transform="translate(22.000000, 31.000000)">
                        <circle id="yellow" fill="#F0C419" cx="33.418" cy="10" r="8.084"></circle>
                        <circle id="red" fill="#E64C3C" cx="57.67" cy="9" r="8.084"></circle>
                        <circle id="green" fill="#4EBA64" cx="8.33" cy="9" r="8.083"></circle>
                    </g>
                </g>
            </g>
        </g>
    </g>
</svg>