<svg xmlns="http://www.w3.org/2000/svg" xmlns:xlink="http://www.w3.org/1999/xlink" 
    version="1.1" x="0px" y="0px" viewBox="0 0 100 125" enable-background="new 0 0 100 100" xml:space="preserve">
    <path d="M50,5C25.1,5,5,25.1,5,50c0,24.9,20.1,45,45,45s45-20.1,45-45C95,25.1,74.9,5,50,5z M66.6,83.1v-4.7H46.1  
    c-0.1,0-0.3,0-0.4,0H31.8v-1.8h17.3h0.6c9.6-1.9,17-10.4,17-20.6c0-11.6-9.4-21-21-21c-6.2,0-11.7,2.7-15.5,6.9l4.5,2.7l-9.6,4.7  
    l-0.4-10.6l4.2,2.5c1.8-2,3.9-3.7,6.3-5c-4.3-1-7.6-4.9-7.6-9.5c0-5.4,4.4-9.8,9.8-9.8c2.9,0,5.5,1.3,7.3,3.3l1.8-1.1l-0.2,4.6  
    l-4.2-2l2-1.2c-1.6-1.8-4-3-6.7-3c-5,0-9.1,4.1-9.1,9.1c0,4.6,3.5,8.4,7.9,9c2.9-1.3,6.1-2.1,9.6-2.1c12.4,0,22.5,10.1,22.5,22.5  
    c0,9.1-5.6,17-13.5,20.6h11.5h0.3v-4.7l8.7,5.6L66.6,83.1z"/>
    <text x="0" y="115" fill="#000000" font-size="5px" font-weight="bold" font-family="'Helvetica Neue', Helvetica, Arial-Unicode, Arial, Sans-serif">
    Created by Nimal Raj
    </text>
    <text x="0" y="120" fill="#000000" font-size="5px" font-weight="bold" font-family="'Helvetica Neue', Helvetica, Arial-Unicode, Arial, Sans-serif">from the Noun Project
    </text>
</svg>